<svg xmlns="http://www.w3.org/2000/svg" width="171" height="32" fill="none" viewBox="0 0 171 32">
    <path fill="#fff" d="M48.447 20.445h-8.27l-1.636 3.828H35.38l7.442-16.54h3.025l7.468 16.54H50.1l-1.654-3.828zm-1.012-2.41l-3.119-7.23-3.096 7.23h6.215zM58.31 23.408c-1.315-.701-2.41-1.751-3.165-3.035-.774-1.325-1.17-2.836-1.147-4.37-.023-1.536.378-3.049 1.158-4.372.762-1.283 1.86-2.332 3.177-3.035 1.391-.743 2.948-1.12 4.525-1.096 1.272-.016 2.533.225 3.71.708 1.093.455 2.064 1.16 2.836 2.057l-1.985 1.867c-.554-.622-1.235-1.117-1.998-1.452-.763-.335-1.588-.5-2.421-.487-1.062-.018-2.111.237-3.047.74-.88.48-1.608 1.195-2.102 2.067-.496.923-.756 1.954-.756 3.001 0 1.048.26 2.079.756 3.001.494.872 1.222 1.588 2.102 2.068.936.504 1.986.76 3.049.743.834.013 1.662-.155 2.425-.494.763-.338 1.444-.839 1.994-1.467l1.984 1.89c-.774.9-1.75 1.604-2.847 2.055-1.18.484-2.446.726-3.722.71-1.577.023-3.135-.355-4.527-1.099zM75.128 23.408c-1.315-.7-2.41-1.75-3.166-3.035-.773-1.325-1.169-2.836-1.145-4.37-.024-1.536.377-3.049 1.157-4.372.762-1.283 1.861-2.332 3.178-3.035 1.392-.743 2.95-1.12 4.528-1.096 1.272-.016 2.534.225 3.71.708 1.093.455 2.064 1.16 2.836 2.057l-1.986 1.867c-.554-.622-1.235-1.117-1.997-1.452-.763-.335-1.588-.5-2.42-.487-1.064-.017-2.114.24-3.05.745-.88.48-1.608 1.195-2.102 2.067-.497.922-.757 1.954-.757 3.001 0 1.048.26 2.08.757 3.002.494.871 1.223 1.588 2.103 2.067.935.505 1.985.76 3.048.743.835.013 1.662-.155 2.425-.494.763-.338 1.443-.839 1.993-1.467l1.986 1.89c-.774.9-1.75 1.604-2.848 2.056-1.18.484-2.446.725-3.721.71-1.579.022-3.137-.358-4.529-1.105zM101.584 21.696v2.577H89.18V7.733h12.082v2.576h-9.01v4.3h7.987v2.528h-7.987v4.561l9.332-.002zM106.439 23.962c-1.189-.36-2.13-.84-2.822-1.44l1.062-2.387c.751.575 1.594 1.018 2.494 1.312.952.332 1.954.503 2.964.506 1.228 0 2.146-.197 2.753-.59.605-.393.91-.915.91-1.56.006-.22-.036-.439-.124-.641-.087-.202-.217-.383-.381-.53-.375-.326-.814-.572-1.288-.72-.52-.172-1.228-.37-2.127-.59-1.036-.233-2.057-.532-3.055-.896-.78-.294-1.476-.777-2.023-1.407-.562-.637-.843-1.499-.843-2.586-.008-.887.251-1.756.744-2.494.495-.746 1.243-1.34 2.244-1.784 1-.442 2.229-.661 3.687-.655 1.004 0 2.004.126 2.976.377.898.218 1.753.586 2.529 1.088l-.969 2.386c-.713-.421-1.478-.749-2.275-.973-.745-.217-1.516-.33-2.291-.338-1.214 0-2.116.206-2.706.616-.275.173-.501.414-.656.7-.155.285-.234.605-.23.93-.006.219.035.436.123.636.087.2.218.378.383.521.377.321.815.563 1.288.71.52.174 1.228.37 2.127.59 1.027.224 2.038.52 3.024.887.778.299 1.472.78 2.024 1.404.562.63.843 1.482.843 2.553.009.883-.251 1.748-.744 2.48-.496.742-1.248 1.333-2.258 1.772-1.009.44-2.238.66-3.685.663-1.253.005-2.499-.177-3.698-.54zM121.302 23.962c-1.191-.36-2.132-.84-2.824-1.44l1.063-2.387c.751.575 1.593 1.019 2.492 1.312.954.332 1.956.503 2.966.506 1.23 0 2.148-.197 2.754-.59.605-.394.908-.914.908-1.56.006-.22-.036-.439-.124-.64-.087-.203-.217-.384-.381-.53-.375-.327-.814-.572-1.289-.72-.519-.173-1.228-.37-2.126-.59-1.038-.234-2.06-.534-3.06-.899-.775-.295-1.465-.779-2.008-1.406-.562-.638-.843-1.5-.843-2.587-.008-.887.252-1.756.745-2.493.496-.747 1.244-1.341 2.244-1.784 1.001-.443 2.226-.661 3.676-.654 1.004 0 2.005.126 2.977.377.899.218 1.754.586 2.53 1.088l-.968 2.386c-.711-.42-1.474-.745-2.268-.968-.745-.217-1.517-.33-2.293-.337-1.213 0-2.112.205-2.698.615-.275.173-.501.414-.657.7-.155.285-.234.605-.23.93-.006.219.035.436.123.636.087.2.218.378.383.521.377.321.816.563 1.288.71.521.174 1.23.37 2.127.59 1.027.224 2.038.52 3.024.887.778.299 1.472.78 2.024 1.404.562.631.843 1.482.843 2.553.003.885-.263 1.75-.764 2.48-.496.742-1.248 1.333-2.256 1.772-1.008.44-2.237.66-3.686.663-1.251.003-2.495-.18-3.692-.545zM23.052 9.41C20.49 6.844 17.333 6 12.6 6c-2.62 0-5.7.056-8.599.14v19.727c1.234.035 2.499.066 3.748.09V10.75c1.575-.042 3.595-.106 5.384-.106 5.51 0 8.43 1.469 8.43 5.213 0 4.337-3.468 5.536-8.213 5.536-.506 0-1.22-.012-1.871-.019V26h1.131c4.733 0 7.89-.818 10.454-3.41 1.596-1.601 2.495-4.081 2.495-6.588 0-2.507-.899-4.988-2.506-6.593z"/>
</svg>
