<svg xmlns="http://www.w3.org/2000/svg" width="190" height="32" fill="none" viewBox="0 0 190 32">
    <path fill="#fff" d="M125.344 18.825h-6.416l-1.266 2.972h-2.465l5.777-12.845h2.357l5.798 12.845h-2.495l-1.29-2.972zm-.786-1.873l-2.422-5.615-2.404 5.615h4.826zM133.005 21.127c-1.021-.545-1.872-1.36-2.459-2.357-.6-1.03-.907-2.204-.889-3.396-.018-1.192.292-2.366.898-3.394.593-.995 1.446-1.81 2.469-2.356 1.08-.578 2.289-.872 3.514-.854.988-.013 1.968.175 2.881.551.849.352 1.603.9 2.202 1.596l-1.542 1.45c-.43-.483-.959-.867-1.551-1.127-.593-.26-1.234-.389-1.88-.378-.826-.013-1.641.185-2.367.578-.684.372-1.249.928-1.633 1.605-.386.716-.588 1.517-.588 2.33 0 .814.202 1.615.588 2.332.383.677.949 1.233 1.633 1.605.726.392 1.541.592 2.367.579.648.01 1.291-.121 1.883-.385.593-.263 1.121-.652 1.548-1.14l1.542 1.468c-.601.7-1.359 1.246-2.211 1.598-.917.375-1.9.562-2.89.55-1.225.017-2.435-.277-3.515-.855zM146.07 21.127c-1.021-.545-1.872-1.36-2.459-2.357-.6-1.03-.908-2.204-.89-3.396-.018-1.192.293-2.366.9-3.394.592-.995 1.445-1.81 2.468-2.356 1.08-.578 2.288-.872 3.513-.854.987-.013 1.967.175 2.881.551.848.352 1.602.9 2.201 1.596l-1.541 1.45c-.43-.483-.959-.867-1.552-1.127-.592-.26-1.233-.389-1.879-.378-.826-.014-1.641.185-2.368.578-.683.371-1.249.928-1.632 1.605-.386.716-.588 1.517-.588 2.33 0 .814.202 1.615.588 2.331.383.678.948 1.235 1.632 1.606.727.393 1.542.592 2.368.579.648.01 1.291-.121 1.883-.385.592-.263 1.121-.652 1.548-1.14l1.541 1.468c-.602.699-1.359 1.246-2.211 1.598-.917.375-1.9.562-2.891.55-1.224.017-2.432-.277-3.512-.855zM166.613 19.796v2.001h-9.63V8.952h9.377v2h-6.991v3.345h6.202v1.964h-6.202v3.535h7.244zM170.384 21.56c-.925-.282-1.656-.655-2.194-1.12l.827-1.853c.582.446 1.237.79 1.935 1.017.74.259 1.519.391 2.303.393.954 0 1.667-.153 2.139-.46.471-.306.706-.71.705-1.21.005-.172-.028-.341-.096-.498-.067-.157-.169-.297-.297-.41-.29-.255-.631-.446-1-.56-.403-.134-.954-.287-1.651-.459-.807-.18-1.601-.414-2.377-.698-.602-.23-1.137-.604-1.559-1.09-.437-.496-.655-1.167-.655-2.01-.006-.69.196-1.364.579-1.936.385-.581.966-1.043 1.743-1.385.777-.342 1.728-.514 2.853-.515.78 0 1.558.098 2.314.293.697.17 1.361.456 1.964.845l-.753 1.853c-.552-.325-1.144-.578-1.761-.752-.579-.168-1.178-.256-1.781-.262-.941 0-1.64.16-2.095.477-.214.134-.39.321-.51.543-.121.222-.182.47-.179.723-.005.17.027.338.095.494.068.156.17.294.298.406.293.248.632.436.999.55.404.135.955.288 1.652.458.798.175 1.583.405 2.348.689.604.232 1.144.606 1.572 1.092.436.49.654 1.15.654 1.98.008.687-.194 1.36-.579 1.928-.385.575-.969 1.034-1.752 1.377-.783.343-1.737.514-2.862.513-.975.006-1.945-.133-2.879-.414zM181.926 21.56c-.924-.282-1.655-.655-2.193-1.12l.825-1.853c.583.446 1.238.79 1.936 1.017.741.259 1.519.391 2.304.393.953 0 1.665-.153 2.137-.46.471-.306.707-.71.707-1.21.004-.172-.028-.341-.096-.498-.068-.157-.169-.297-.297-.41-.29-.255-.63-.446-.999-.56-.404-.134-.955-.287-1.653-.459-.806-.18-1.599-.414-2.375-.698-.602-.229-1.138-.604-1.559-1.09-.437-.496-.655-1.167-.655-2.01-.007-.69.195-1.364.577-1.936.387-.581.968-1.043 1.744-1.385.777-.342 1.728-.514 2.854-.515.779 0 1.555.099 2.31.293.697.17 1.361.456 1.964.845l-.752 1.853c-.553-.325-1.145-.578-1.762-.752-.579-.168-1.178-.256-1.78-.262-.943 0-1.641.16-2.095.477-.214.134-.389.321-.509.543-.121.222-.182.47-.178.723-.006.17.027.339.095.494.068.156.169.294.297.406.294.248.634.435 1.001.55.403.135.953.288 1.651.458.798.175 1.583.405 2.349.689.604.232 1.143.607 1.571 1.092.437.49.655 1.15.655 1.98.007.687-.195 1.36-.579 1.928-.385.575-.969 1.034-1.752 1.377-.783.343-1.737.514-2.862.513-.976.006-1.947-.133-2.881-.414zM13.39 19.39c-1.827 1.848-4.075 2.43-7.448 2.43-1.867 0-3.874-.04-5.942-.1V7.667c2.068-.06 4.075-.1 5.942-.1 3.373 0 5.621.602 7.448 2.428 1.144 1.145 1.784 2.911 1.784 4.695 0 1.783-.64 3.556-1.784 4.7zm-2.488-7.768c-1.265-1.265-2.951-1.325-5-1.325-.983 0-1.886 0-2.93.02v8.753c1.048.02 1.947.04 2.93.04 2.049 0 3.735-.081 5-1.346.762-.762 1.179-1.826 1.179-3.07 0-1.244-.418-2.309-1.18-3.072h.001zM18.551 6c.983 0 1.786.763 1.786 1.687 0 .923-.803 1.686-1.786 1.686s-1.766-.763-1.766-1.686c0-.924.783-1.687 1.766-1.687zm1.44 5.12h-2.866v10.606h2.872L19.99 11.12zM28.167 26.137c-2.048 0-3.956-.362-5.621-1.104l1.27-2.19c1.385.663 2.63 1.024 4.115 1.024 2.488 0 4.06-1.405 4.06-3.492v-.24c-1.205.983-2.851 1.585-4.322 1.585-3.835 0-5.922-2.27-5.922-5.421 0-2.99 2.529-5.44 6.123-5.44 1.465 0 3.091.562 4.115 1.586h.04l.02-1.325h2.81v8.676c-.003 3.798-1.873 6.34-6.688 6.34zm.08-12.964c-2.188 0-3.614 1.384-3.614 3.131 0 1.727 1.426 3.113 3.614 3.113 1.947 0 3.734-1.286 3.734-3.113 0-1.826-1.787-3.136-3.734-3.136v.005zM38.627 6c.984 0 1.787.763 1.787 1.687 0 .923-.803 1.686-1.787 1.686-.985 0-1.767-.763-1.767-1.686 0-.924.783-1.687 1.767-1.687zm1.44 5.12h-2.865v10.606h2.87l-.005-10.606zM49.809 10.858c3.694 0 6.144 2.47 6.144 5.561 0 3.092-2.45 5.561-6.144 5.561-1.44 0-3.072-.542-4.095-1.585v5.48h-2.89V11.12h2.81l.04 1.325h.04c1.023-1.029 2.65-1.587 4.095-1.587zm-.361 8.814c2.269 0 3.594-1.405 3.594-3.253 0-1.847-1.325-3.25-3.594-3.25-2.068 0-3.734 1.323-3.734 3.25 0 1.928 1.671 3.253 3.734 3.253zM63.863 21.98c-3.976 0-6.706-2.349-6.706-5.56 0-3.192 2.73-5.562 6.706-5.562 3.975 0 6.705 2.37 6.705 5.561 0 3.212-2.73 5.561-6.705 5.561zm0-8.812c-2.328 0-3.798 1.365-3.798 3.252 0 1.886 1.467 3.252 3.798 3.252 2.33 0 3.818-1.366 3.818-3.253 0-1.886-1.49-3.25-3.818-3.25zM81.53 12.344l-1.486 1.887c-.862-.602-2.368-1.145-3.513-1.145-.983 0-1.766.262-1.766.884 0 1.887 6.846.843 6.846 4.617 0 2.068-1.948 3.393-5 3.393-1.867 0-3.974-.723-5.34-1.726l1.607-2.048c1.063.823 2.79 1.526 4.095 1.526.903 0 1.833-.181 1.833-.904 0-1.867-6.867-.622-6.867-4.583 0-1.887 2.048-3.393 4.617-3.393 1.561.006 3.65.468 4.975 1.492zM89.513 18.848l1.064 2.29c-.923.502-2.007.842-3.03.842-2.61 0-3.293-1.645-3.293-4.014v-4.378H82.75V11.12h1.505V7.868h2.89v3.252h2.928v2.469h-2.928v3.995c0 1.064.081 1.806 1.024 1.806.443 0 .987-.26 1.345-.542zM103.647 16.66c0 .241-.019.643-.039.884h-9.436c.482 1.405 1.887 2.226 3.733 2.226 1.226 0 2.571-.402 3.735-1.064l1.178 2.088c-1.573.797-3.316 1.2-5.079 1.179-3.935 0-6.665-2.087-6.665-5.561 0-3.152 2.73-5.561 6.547-5.561 2.956.007 6.026 1.915 6.026 5.81zm-3.07-1.123c-.181-1.571-1.547-2.47-3.152-2.47-1.768 0-2.992.984-3.353 2.47h6.505z"/>
</svg>
