<svg xmlns="http://www.w3.org/2000/svg" viewBox="0 0 633.08 287.59"><defs><style>.cls-1{fill:#1d1d1b;}.cls-2{fill:#fff;}</style></defs><title>Fichier 2</title><g id="Calque_2" data-name="Calque 2"><g id="Calque_1-2" data-name="Calque 1"><path class="cls-2" d="M126.81,144.38v62.38H114.69L75.21,162.92v43.85H62.38V144.38H75.21l38.77,43v-43Z"/><path class="cls-2" d="M171.64,159.71h12.83v24.42c0,16.67-7.84,23.8-25.31,23.8s-25.31-7.13-25.31-23.8V159.71h12.83V182c0,5.17.53,9.89,3.3,12.66,2,2,5,3,9.18,3s7.22-1,9.18-3c2.76-2.76,3.3-7.49,3.3-12.66Z"/><path class="cls-2" d="M274.3,180v26.73H261.47v-24.6c0-7.22-1.43-13.37-9.18-13.37-9.54,0-13,8.47-13,17.2v20.76H226.53v-24.6c0-7.22-1.42-13.37-9.27-13.37-9.45,0-12.92,8.47-12.92,17.2v20.76H191.51V159.71H204l.09,6.24h.27a24.17,24.17,0,0,1,16.75-7.4c8.82,0,13.72,3.21,16.13,8.64a25.91,25.91,0,0,1,18.89-8.64C270.47,158.55,274.3,166.93,274.3,180Z"/><path class="cls-2" d="M334.54,188.23h-42c2.14,6.24,8.47,9.89,16.67,9.89a34.31,34.31,0,0,0,16.49-4.72l5.26,9.27a48.17,48.17,0,0,1-22.46,5.26c-17.56,0-29.59-9.27-29.59-24.69,0-14,12.12-24.69,29-24.69,13.1,0,26.74,8.47,26.74,25.67C334.63,185.38,334.63,187.16,334.54,188.23Zm-13.46-8.91c-.8-7-7-11-14-11-7.93,0-13.37,4.37-14.88,11Zm-8.73-28.52H300.95l8.56-13.28h18Z"/><path class="cls-2" d="M351.83,167.91h.27c2.76-4.63,7.66-9.36,15.42-9.36a24,24,0,0,1,7.84,1.25l-5.26,12.48a18.88,18.88,0,0,0-6.95-1.34c-7.22,0-11.05,6.06-11.05,17v18.8H339.27V159.71h12.48Z"/><path class="cls-2" d="M383.38,137a7.5,7.5,0,1,1,0,15,7.49,7.49,0,1,1,0-15Zm6.42,22.72H377.05v47.05h12.74Z"/><path class="cls-2" d="M421.25,207.92c-17,0-26.29-10.61-26.29-24.69,0-13.72,10.87-24.69,27.27-24.69,6.42,0,13.63,2.5,18.18,7h.18l.09-5.88h12.48v65.5H440.41V200.88A31.71,31.71,0,0,1,421.25,207.92Zm2.59-39.12c-10.16,0-16,6.24-16,14.44s5.88,14.44,16,14.44c9.18,0,16.57-5.88,16.57-14.44S433,168.8,423.84,168.8Z"/><path class="cls-2" d="M497.89,159.71h12.83v24.42c0,16.67-7.84,23.8-25.31,23.8s-25.31-7.13-25.31-23.8V159.71h12.83V182c0,5.17.54,9.89,3.3,12.66,2,2,5,3,9.18,3s7.22-1,9.18-3c2.76-2.76,3.3-7.49,3.3-12.66Z"/><path class="cls-2" d="M570.7,184.31c0,1.07-.09,2.85-.18,3.92H528.64c2.14,6.24,8.38,9.89,16.58,9.89a34.64,34.64,0,0,0,16.57-4.72l5.26,9.27a48.53,48.53,0,0,1-22.55,5.26c-17.47,0-29.59-9.27-29.59-24.69,0-14,12.12-24.69,29.05-24.69C557.07,158.55,570.7,167,570.7,184.31Zm-13.63-5c-.8-7-6.86-11-14-11-7.84,0-13.28,4.37-14.88,11Z"/><path class="cls-2" d="M75.57,119.6h36v12H66.93a4.19,4.19,0,0,1-4.55-4.46V69.24H75.57Z"/><path class="cls-2" d="M112.79,93l7.57-23.79h14L123.58,93Z"/><path class="cls-2" d="M152.81,131.63V69.24H166v62.38Z"/><path class="cls-2" d="M227.58,125.75a31.31,31.31,0,0,1-19.16,7c-17,0-26.29-10.6-26.29-24.69,0-13.72,10.87-24.69,27.27-24.69,6.42,0,13.63,2.5,18.18,7V62.38h12.83v69.24H227.94l-.09-5.88ZM211.09,93.66c-10.16,0-16,6.24-16,14.44s5.88,14.44,16,14.44c9.09,0,16.49-5.88,16.49-14.44S220.19,93.66,211.09,93.66Z"/><path class="cls-2" d="M312,109.17c0,1.07-.09,2.85-.18,3.92H270c2.14,6.24,8.38,9.89,16.58,9.89a34.65,34.65,0,0,0,16.57-4.72l5.26,9.27a48.54,48.54,0,0,1-22.55,5.26c-17.47,0-29.59-9.27-29.59-24.69,0-14,12.12-24.69,29.05-24.69C298.41,83.41,312,91.88,312,109.17Zm-13.63-5c-.8-7-6.86-11-14-11-7.84,0-13.28,4.37-14.88,11Z"/><path class="cls-2" d="M340.69,90.81a24.94,24.94,0,0,1,17.47-7.4c15.24,0,20.23,8.2,20.23,21.48v26.74H365.64V107c0-8.56-2.85-13.37-11.05-13.37-9.71,0-13.9,8.11-13.9,17.2v20.76H327.85V84.57h12.48l.09,6.24Z"/><path class="cls-2" d="M422.63,118.88,427.35,129a29.12,29.12,0,0,1-13.46,3.74c-11.59,0-14.62-7.31-14.62-17.82V95.53H392.6v-11h6.68V70.14h12.83V84.57h13v11h-13v17.73c0,4.72.36,8,4.54,8A10.94,10.94,0,0,0,422.63,118.88Z"/><path class="cls-2" d="M449,61.85a7.5,7.5,0,1,1,0,15,7.49,7.49,0,1,1,0-15Zm6.42,22.72H442.69v47.05h12.74Z"/><path class="cls-2" d="M501.63,118.88,506.36,129a29.12,29.12,0,0,1-13.46,3.74c-11.59,0-14.62-7.31-14.62-17.82V95.53H471.6v-11h6.68V70.14h12.83V84.57h13v11h-13v17.73c0,4.72.36,8,4.54,8A10.94,10.94,0,0,0,501.63,118.88Z"/><path class="cls-2" d="M570.52,113.09h-42c2.14,6.24,8.47,9.89,16.67,9.89a34.32,34.32,0,0,0,16.49-4.72l5.26,9.27a48.18,48.18,0,0,1-22.46,5.26c-17.56,0-29.59-9.27-29.59-24.69,0-14,12.12-24.69,29-24.69,13.1,0,26.74,8.47,26.74,25.67C570.61,110.24,570.61,112,570.52,113.09Zm-13.46-8.91c-.8-7-7-11-14-11-7.93,0-13.37,4.37-14.88,11Zm-8.73-28.52H536.93l8.56-13.28h18Z"/></g></g></svg>