<?xml version="1.0" encoding="UTF-8"?><svg xmlns="http://www.w3.org/2000/svg" viewBox="0 0 134.68 19.67"><defs><style>.d{fill:#fff;}</style></defs><g id="a"/><g id="b"><g id="c"><path class="d" d="M2.01,15.2c-.82-.36-1.49-.88-2.01-1.56l1.86-2.23c.78,1.06,1.68,1.59,2.68,1.59,1.36,0,2.04-.8,2.04-2.39V3.74H1.51V1.05H9.91V10.42c0,1.77-.44,3.11-1.32,3.99-.88,.89-2.17,1.33-3.88,1.33-.98,0-1.87-.18-2.69-.55Z"/><path class="d" d="M22.76,10.86H14.36c.15,.69,.51,1.23,1.07,1.63,.56,.4,1.27,.6,2.1,.6,.58,0,1.09-.09,1.54-.26,.45-.17,.86-.44,1.25-.82l1.71,1.86c-1.05,1.2-2.57,1.8-4.58,1.8-1.25,0-2.36-.24-3.32-.73-.96-.49-1.71-1.17-2.23-2.03s-.78-1.85-.78-2.95,.26-2.07,.77-2.94c.52-.87,1.22-1.55,2.13-2.04,.9-.49,1.91-.73,3.02-.73s2.07,.23,2.95,.7c.88,.47,1.57,1.14,2.07,2.01,.5,.87,.75,1.89,.75,3.04,0,.04-.02,.33-.06,.87Zm-7.53-3.57c-.5,.41-.8,.98-.91,1.69h5.47c-.11-.7-.41-1.26-.91-1.68-.5-.42-1.1-.63-1.82-.63s-1.34,.21-1.84,.62Z"/><path class="d" d="M24.83,1.05h6.56c1.57,0,2.95,.3,4.16,.9,1.2,.6,2.14,1.44,2.81,2.53,.67,1.09,1,2.35,1,3.8s-.33,2.71-1,3.8c-.67,1.09-1.6,1.93-2.81,2.53-1.2,.6-2.59,.9-4.16,.9h-6.56V1.05Zm6.4,11.7c1.44,0,2.6-.4,3.46-1.21,.86-.8,1.29-1.9,1.29-3.27s-.43-2.47-1.29-3.27c-.86-.81-2.01-1.21-3.46-1.21h-3.05V12.75h3.05Z"/><path class="d" d="M51.43,10.86h-8.4c.15,.69,.51,1.23,1.07,1.63,.56,.4,1.27,.6,2.1,.6,.58,0,1.09-.09,1.54-.26,.45-.17,.86-.44,1.25-.82l1.71,1.86c-1.05,1.2-2.57,1.8-4.58,1.8-1.25,0-2.36-.24-3.32-.73-.96-.49-1.71-1.17-2.23-2.03s-.78-1.85-.78-2.95,.26-2.07,.77-2.94c.52-.87,1.22-1.55,2.13-2.04,.9-.49,1.91-.73,3.02-.73s2.07,.23,2.95,.7c.88,.47,1.57,1.14,2.07,2.01,.5,.87,.75,1.89,.75,3.04,0,.04-.02,.33-.06,.87Zm-7.53-3.57c-.5,.41-.8,.98-.91,1.69h5.47c-.11-.7-.41-1.26-.91-1.68-.5-.42-1.1-.63-1.82-.63s-1.34,.21-1.84,.62Zm2.66-7.28h3.47l-3.74,2.97h-2.52l2.79-2.97Z"/><path class="d" d="M70.13,5.46c.82,.82,1.23,2.05,1.23,3.68v6.36h-3.22v-5.86c0-.88-.18-1.54-.55-1.97-.36-.43-.88-.65-1.56-.65-.76,0-1.36,.24-1.8,.73-.44,.49-.66,1.21-.66,2.18v5.57h-3.22v-5.86c0-1.75-.7-2.62-2.11-2.62-.74,0-1.33,.24-1.77,.73-.44,.49-.66,1.21-.66,2.18v5.57h-3.22V4.4h3.07v1.28c.41-.47,.92-.83,1.52-1.07,.6-.25,1.26-.37,1.97-.37,.78,0,1.49,.15,2.13,.46,.63,.31,1.14,.76,1.53,1.35,.45-.58,1.03-1.02,1.72-1.34,.69-.32,1.46-.47,2.28-.47,1.39,0,2.49,.41,3.31,1.23Z"/><path class="d" d="M84.16,10.86h-8.4c.15,.69,.51,1.23,1.07,1.63,.56,.4,1.27,.6,2.1,.6,.58,0,1.09-.09,1.54-.26,.45-.17,.86-.44,1.25-.82l1.71,1.86c-1.05,1.2-2.57,1.8-4.58,1.8-1.25,0-2.36-.24-3.32-.73-.96-.49-1.71-1.17-2.23-2.03s-.78-1.85-.78-2.95,.26-2.07,.77-2.94c.52-.87,1.22-1.55,2.13-2.04,.9-.49,1.91-.73,3.02-.73s2.07,.23,2.95,.7c.88,.47,1.57,1.14,2.07,2.01,.5,.87,.75,1.89,.75,3.04,0,.04-.02,.33-.06,.87Zm-7.53-3.57c-.5,.41-.8,.98-.91,1.69h5.47c-.11-.7-.41-1.26-.91-1.68-.5-.42-1.1-.63-1.82-.63s-1.34,.21-1.84,.62Zm2.66-7.28h3.47l-3.74,2.97h-2.52l2.79-2.97Z"/><path class="d" d="M95.41,5.47c.85,.83,1.27,2.05,1.27,3.67v6.36h-3.22v-5.86c0-.88-.19-1.54-.58-1.97-.39-.43-.94-.65-1.67-.65-.81,0-1.46,.25-1.94,.75-.48,.5-.72,1.25-.72,2.24v5.49h-3.22V4.4h3.07v1.3c.43-.47,.96-.83,1.59-1.08,.63-.25,1.33-.38,2.08-.38,1.38,0,2.49,.41,3.33,1.24Z"/><path class="d" d="M107,5.46c.92,.82,1.38,2.05,1.38,3.7v6.34h-3.01v-1.38c-.61,1.03-1.73,1.55-3.38,1.55-.85,0-1.59-.14-2.22-.43-.63-.29-1.1-.69-1.43-1.2s-.5-1.09-.5-1.73c0-1.03,.39-1.84,1.17-2.44,.78-.59,1.98-.89,3.6-.89h2.56c0-.7-.21-1.24-.64-1.62-.43-.38-1.07-.57-1.92-.57-.59,0-1.17,.09-1.74,.28-.57,.19-1.06,.44-1.46,.75l-1.16-2.25c.61-.43,1.33-.76,2.18-.99,.85-.23,1.72-.35,2.61-.35,1.72,0,3.04,.41,3.96,1.23Zm-2.74,7.66c.43-.25,.73-.63,.91-1.12v-1.14h-2.21c-1.32,0-1.98,.43-1.98,1.3,0,.41,.16,.74,.48,.98,.32,.24,.77,.36,1.33,.36s1.04-.13,1.47-.38Z"/><path class="d" d="M121.84,4.4V13.64c0,2.04-.53,3.55-1.59,4.54-1.06,.99-2.61,1.49-4.64,1.49-1.07,0-2.09-.13-3.05-.39-.96-.26-1.76-.64-2.39-1.14l1.28-2.31c.47,.39,1.06,.69,1.77,.92,.72,.23,1.43,.34,2.15,.34,1.11,0,1.94-.25,2.47-.75,.53-.5,.79-1.26,.79-2.28v-.47c-.84,.92-2.01,1.38-3.51,1.38-1.02,0-1.95-.22-2.8-.67s-1.52-1.08-2.01-1.89c-.5-.81-.74-1.75-.74-2.81s.25-1.99,.74-2.81c.5-.81,1.17-1.44,2.01-1.89,.85-.45,1.78-.67,2.8-.67,1.61,0,2.83,.53,3.67,1.59v-1.42h3.05Zm-3.99,7.17c.54-.5,.82-1.16,.82-1.97s-.27-1.47-.82-1.97c-.54-.5-1.24-.75-2.09-.75s-1.55,.25-2.1,.75c-.55,.5-.83,1.16-.83,1.97s.28,1.47,.83,1.97c.55,.5,1.25,.75,2.1,.75s1.55-.25,2.09-.75Z"/><path class="d" d="M134.61,10.86h-8.4c.15,.69,.51,1.23,1.07,1.63,.56,.4,1.27,.6,2.1,.6,.58,0,1.09-.09,1.54-.26,.45-.17,.86-.44,1.25-.82l1.71,1.86c-1.05,1.2-2.57,1.8-4.58,1.8-1.25,0-2.36-.24-3.32-.73-.96-.49-1.71-1.17-2.23-2.03s-.78-1.85-.78-2.95,.26-2.07,.77-2.94c.52-.87,1.22-1.55,2.13-2.04,.9-.49,1.91-.73,3.02-.73s2.07,.23,2.95,.7c.88,.47,1.57,1.14,2.07,2.01,.5,.87,.75,1.89,.75,3.04,0,.04-.02,.33-.06,.87Zm-7.53-3.57c-.5,.41-.8,.98-.91,1.69h5.47c-.11-.7-.41-1.26-.91-1.68-.5-.42-1.1-.63-1.82-.63s-1.34,.21-1.84,.62Z"/></g></g></svg>