<?xml version="1.0" encoding="UTF-8"?>
<svg width="307px" height="99px" viewBox="0 0 307 99" version="1.1" xmlns="http://www.w3.org/2000/svg" xmlns:xlink="http://www.w3.org/1999/xlink">
    <!-- Generator: Sketch 55.2 (78181) - https://sketchapp.com -->
    <title>Group</title>
    <desc>Created with Sketch.</desc>
    <g id="Mire-d'authent" stroke="none" stroke-width="1" fill="none" fill-rule="evenodd">
        <g id="FranceConnect" transform="translate(-586.000000, -804.000000)" fill="#FFFFFF" fill-rule="nonzero">
            <g id="LIN_Connect_hover" transform="translate(556.000000, 666.000000)">
                <g id="Group" transform="translate(30.000000, 138.000000)">
                    <polygon id="Path" points="39.1482102 50.2248214 39.1482102 87.9155357 31.936849 87.9155357 8.37973578 61.33875 8.37973578 87.9155357 0.44723847 87.9155357 0.44723847 50.2248214 8.13935707 50.2248214 31.4560916 76.3183929 31.4560916 50.2248214"></polygon>
                    <path d="M66.0706253,59.4058929 L73.7627439,59.4058929 L73.7627439,74.3855357 C73.7627439,84.5330357 68.9551698,88.8819643 58.6188854,88.8819643 C48.282601,88.8819643 43.4750269,84.5330357 43.4750269,74.3855357 L43.4750269,59.4058929 L51.1671455,59.4058929 L51.1671455,72.9358929 C50.9267668,75.5935714 51.6479029,78.4928571 53.0901752,80.6673214 C56.455477,83.0833929 60.7822938,83.0833929 64.1475957,80.6673214 C65.8302466,78.4928571 66.5513827,75.8351786 66.0706253,72.9358929 L66.0706253,59.4058929 Z" id="Path"></path>
                    <path d="M128.088332,71.7278571 L128.088332,87.9155357 L120.396213,87.9155357 L120.396213,72.9358929 C120.396213,68.5869643 119.434698,64.9628571 114.867503,64.9628571 C109.098414,64.9628571 106.935005,70.0366071 106.935005,75.3519643 L106.935005,87.9155357 L99.2428868,87.9155357 L99.2428868,72.9358929 C99.2428868,68.5869643 98.281372,64.9628571 93.7141765,64.9628571 C87.9450876,64.9628571 86.0220579,70.0366071 86.0220579,75.3519643 L86.0220579,87.9155357 L78.0895606,87.9155357 L78.0895606,59.4058929 L85.5413005,59.4058929 L85.5413005,63.2716071 L85.5413005,63.2716071 C88.1854663,60.6139286 91.7911469,58.9226786 95.6372062,58.6810714 C100.925538,58.6810714 103.810082,60.6139286 105.252354,63.9964286 C108.136899,60.8555357 112.223337,58.9226786 116.550154,58.6810714 C125.684544,58.6810714 128.088332,63.7548214 128.088332,71.7278571 Z" id="Path"></path>
                    <path d="M164.145137,76.56 L138.905373,76.56 C140.588024,80.4257143 144.674462,82.8417857 149.001279,82.6001786 C152.60696,82.3585714 155.972261,81.3921429 158.856806,79.7008929 L161.981729,85.2578571 C157.895291,87.4323214 153.087717,88.39875 148.520522,88.39875 C137.943858,88.39875 130.732497,82.8417857 130.732497,73.4191071 C130.732497,64.9628571 137.943858,58.4394643 148.280143,58.4394643 C156.693398,57.95625 163.904759,64.4796429 164.385516,72.9358929 C164.385516,73.4191071 164.385516,73.6607143 164.385516,74.1439286 C164.385516,74.86875 164.385516,76.0767857 164.145137,76.56 Z M156.21264,71.2446429 C155.491504,67.1373214 151.885823,64.2380357 147.799385,64.72125 C143.712947,64.4796429 139.866888,67.1373214 138.905373,71.2446429 L156.21264,71.2446429 Z M150.924309,54.0905357 L143.953326,54.0905357 L149.241658,46.1175 L160.058699,46.1175 L150.924309,54.0905357 Z" id="Shape"></path>
                    <path d="M174.721801,64.4796429 L174.721801,64.4796429 C176.64483,61.0971429 180.250511,58.9226786 184.09657,58.6810714 C185.779221,58.6810714 187.221493,58.9226786 188.904144,59.4058929 L185.779221,66.8957143 C184.336949,66.6541071 182.894677,66.4125 181.452404,66.4125 C177.125588,66.4125 174.721801,70.0366071 174.721801,76.8016071 L174.721801,88.1571429 L167.029682,88.1571429 L167.029682,59.6475 L174.481422,59.6475 L174.721801,64.4796429 Z" id="Path"></path>
                    <path d="M193.711718,45.6342857 C196.115505,45.3926786 198.278914,47.3255357 198.519292,49.7416071 C198.759671,52.1576786 196.836642,54.3321429 194.432854,54.57375 C194.192476,54.57375 193.952097,54.57375 193.711718,54.57375 C191.307931,54.8153571 189.144523,52.8825 188.904144,50.4664286 C188.663766,48.0503571 190.586795,45.8758929 192.990582,45.6342857 C193.230961,45.6342857 193.47134,45.6342857 193.711718,45.6342857 Z M197.557778,59.4058929 L189.865659,59.4058929 L189.865659,87.9155357 L197.557778,87.9155357 L197.557778,59.4058929 Z" id="Shape"></path>
                    <path d="M216.547695,88.6403571 C206.211411,88.6403571 200.682701,82.3585714 200.682701,73.6607143 C200.682701,65.2044643 207.172926,58.6810714 217.028453,58.6810714 C221.114891,58.6810714 224.96095,60.1307143 228.085873,63.03 L228.085873,63.03 L228.085873,59.4058929 L235.537613,59.4058929 L235.537613,98.7878571 L227.845495,98.7878571 L227.845495,83.8082143 C224.720571,86.9491071 220.634133,88.6403571 216.547695,88.6403571 Z M217.989968,64.9628571 C213.182394,63.9964286 208.615198,67.1373214 207.413305,71.9694643 C206.45179,76.8016071 209.576713,81.3921429 214.384287,82.6001786 C215.586181,82.8417857 216.788074,82.8417857 217.989968,82.6001786 C222.797542,83.5666071 227.364737,80.4257143 228.566631,75.5935714 C229.528146,70.7614286 226.403222,66.1708929 221.595648,64.9628571 C220.393755,64.72125 219.191861,64.72125 217.989968,64.9628571 Z" id="Shape"></path>
                    <path d="M262.700407,59.6475 L270.392526,59.6475 L270.392526,74.6271429 C270.392526,84.7746429 265.584952,89.1235714 255.248667,89.1235714 C244.912383,89.1235714 240.104809,84.7746429 240.104809,74.6271429 L240.104809,59.6475 L247.796927,59.6475 L247.796927,73.1775 C247.556549,75.8351786 248.277685,78.7344643 249.719957,80.9089286 C253.085259,83.325 257.412076,83.325 260.777377,80.9089286 C262.460028,78.7344643 263.181165,76.0767857 262.700407,73.1775 L262.700407,59.6475 Z" id="Path"></path>
                    <path d="M306.449332,74.3855357 C306.449332,75.1103571 306.449332,76.0767857 306.449332,76.8016071 L281.209567,76.8016071 C282.892218,80.6673214 286.978656,83.0833929 291.305473,82.8417857 C294.911154,82.6001786 298.276456,81.63375 301.161,79.9425 L304.285923,85.4994643 C300.199485,87.6739286 295.391911,88.6403571 290.824716,88.6403571 C280.248053,88.6403571 273.036691,83.0833929 273.036691,73.6607143 C273.036691,65.2044643 280.248053,58.6810714 290.584337,58.6810714 C298.997592,58.1978571 306.208953,64.9628571 306.449332,73.4191071 C306.449332,73.6607143 306.449332,73.9023214 306.449332,74.3855357 Z M298.276456,71.2446429 C297.55532,67.1373214 293.949639,64.2380357 289.863201,64.72125 C285.776763,64.4796429 281.930704,67.3789286 280.969189,71.2446429 L298.276456,71.2446429 Z" id="Shape"></path>
                    <path d="M8.37973578,35.0035714 L30.0138194,35.0035714 L30.0138194,42.2517857 L3.09140424,42.2517857 C1.649132,42.4933929 0.44723847,41.2853571 0.44723847,40.0773214 C0.44723847,39.8357143 0.44723847,39.8357143 0.44723847,39.5941071 L0.44723847,4.56107143 L8.37973578,4.56107143 L8.37973578,35.0035714 Z" id="Path"></path>
                    <polygon id="Path" points="30.4945768 19.0575 35.0617722 4.56107143 43.4750269 4.56107143 36.9848018 19.0575"></polygon>
                    <polygon id="Path" points="54.2920687 42.4933929 54.2920687 4.56107143 62.224566 4.56107143 62.224566 42.2517857 54.2920687 42.2517857"></polygon>
                    <path d="M99.2428868,38.8692857 C95.8775849,41.5269643 92.0315256,42.9766071 87.7047089,43.2182143 C77.3684245,43.2182143 71.8397143,36.6948214 71.8397143,28.2385714 C71.8397143,19.7823214 78.3299393,13.2589286 88.1854663,13.2589286 C92.2719043,13.2589286 96.1179636,14.7085714 99.2428868,17.6078571 L99.2428868,0.695357143 L106.935005,0.695357143 L106.935005,42.4933929 L99.4832655,42.4933929 L99.2428868,38.8692857 L99.2428868,38.8692857 Z M89.3873598,19.5407143 C83.3778922,19.5407143 79.7722116,23.4064286 79.7722116,28.2385714 C79.7722116,33.0707143 83.3778922,36.9364286 89.3873598,36.9364286 C94.1949339,37.9028571 99.0025081,34.7619643 99.9640229,30.1714286 C100.925538,25.3392857 97.8006145,20.5071429 93.2334191,19.5407143 C91.7911469,19.2991071 90.5892533,19.2991071 89.3873598,19.5407143 Z" id="Shape"></path>
                    <path d="M150.443551,28.9633929 C150.443551,29.6882143 150.443551,30.6546429 150.443551,31.3794643 L124.963408,31.3794643 C126.646059,35.2451786 130.732497,37.66125 134.818935,37.4196429 C138.424616,37.1780357 141.789918,36.2116071 144.674462,34.5203571 L147.799385,40.0773214 C143.712947,42.2517857 138.905373,43.2182143 134.338178,43.2182143 C123.761515,43.2182143 116.550154,37.66125 116.550154,28.2385714 C116.550154,19.7823214 123.761515,13.2589286 134.097799,13.2589286 C142.511054,12.7757143 149.722415,19.2991071 149.962794,27.7553571 C150.443551,28.2385714 150.443551,28.7217857 150.443551,28.9633929 Z M142.270675,26.0641071 C141.549539,21.9567857 137.943858,19.0575 133.85742,19.2991071 C129.770982,19.0575 125.924923,21.9567857 124.963408,26.0641071 L142.270675,26.0641071 Z" id="Shape"></path>
                    <path d="M167.991197,17.6078571 C170.875741,14.7085714 174.481422,13.2589286 178.56786,13.2589286 C187.702251,13.2589286 190.827174,18.3326786 190.827174,26.3057143 L190.827174,42.4933929 L183.135055,42.4933929 L183.135055,27.51375 C183.135055,22.1983929 181.452404,19.5407143 176.404452,19.5407143 C170.394984,19.5407143 167.991197,24.3728571 167.991197,29.9298214 L167.991197,42.4933929 L160.299078,42.4933929 L160.299078,13.98375 L167.750818,13.98375 L167.991197,17.6078571 L167.991197,17.6078571 Z" id="Path"></path>
                    <path d="M217.50921,34.7619643 L220.393755,40.8021429 C217.989968,42.2517857 215.105423,42.9766071 212.220879,42.9766071 C205.249896,42.9766071 203.326867,38.6276786 203.326867,32.1042857 L203.326867,20.2655357 L199.240429,20.2655357 L199.240429,13.5005357 L203.326867,13.5005357 L203.326867,4.80267857 L211.018985,4.80267857 L211.018985,13.5005357 L218.951483,13.5005357 L218.951483,20.2655357 L211.018985,20.2655357 L211.018985,30.89625 C211.018985,33.7955357 211.259364,35.7283929 213.663151,35.7283929 C215.105423,36.2116071 216.547695,35.7283929 217.50921,34.7619643 Z" id="Path"></path>
                    <path d="M232.653069,0.212142857 C235.056856,-0.271071429 237.460643,1.42017857 237.9414,3.83625 C238.422158,6.25232143 236.739507,8.66839286 234.33572,9.15160714 C233.854962,9.15160714 233.133826,9.15160714 232.653069,9.15160714 C230.249282,9.63482143 227.845495,7.94357143 227.364737,5.5275 C226.88398,3.11142857 228.566631,0.695357143 230.970418,0.212142857 C231.451175,-0.0294642857 232.172311,-0.0294642857 232.653069,0.212142857 Z M236.499128,13.98375 L228.807009,13.98375 L228.807009,42.4933929 L236.258749,42.4933929 L236.499128,13.98375 Z" id="Shape"></path>
                    <path d="M263.902301,34.7619643 L266.786845,40.8021429 C264.383058,42.2517857 261.498514,42.9766071 258.613969,42.9766071 C251.642987,42.9766071 249.719957,38.6276786 249.719957,32.1042857 L249.719957,20.2655357 L245.633519,20.2655357 L245.633519,13.5005357 L249.719957,13.5005357 L249.719957,4.80267857 L257.412076,4.80267857 L257.412076,13.5005357 L265.344573,13.5005357 L265.344573,20.2655357 L257.412076,20.2655357 L257.412076,30.89625 C257.412076,33.7955357 257.652454,35.7283929 260.056241,35.7283929 C261.738892,36.2116071 262.940786,35.7283929 263.902301,34.7619643 Z" id="Path"></path>
                    <path d="M306.449332,31.3794643 L281.209567,31.3794643 C282.892218,35.2451786 286.978656,37.66125 291.305473,37.4196429 C294.911154,37.1780357 298.276456,36.2116071 301.161,34.5203571 L304.285923,40.0773214 C300.199485,42.2517857 295.391911,43.2182143 290.824716,43.2182143 C280.248053,43.2182143 273.036691,37.66125 273.036691,28.2385714 C273.036691,19.7823214 280.248053,13.2589286 290.584337,13.2589286 C298.997592,12.7757143 306.208953,19.2991071 306.68971,27.7553571 C306.68971,28.2385714 306.68971,28.4801786 306.68971,28.9633929 C306.449332,29.6882143 306.449332,30.6546429 306.449332,31.3794643 Z M298.516834,26.0641071 C297.795698,21.9567857 294.190018,19.0575 290.10358,19.2991071 C286.017142,19.0575 282.171082,21.9567857 281.209567,26.0641071 L298.516834,26.0641071 Z M293.228503,8.91 L286.25752,8.91 L291.305473,0.936964286 L302.122515,0.936964286 L293.228503,8.91 Z" id="Shape"></path>
                </g>
            </g>
        </g>
    </g>
</svg>