<svg id="Calque_1" data-name="Calque 1" xmlns="http://www.w3.org/2000/svg" viewBox="0 0 321.57 258.17"><defs><style>.cls-1{fill:none;}.cls-2{fill:#fff;}</style></defs><title>LPsymbole_R_CS</title><rect class="cls-1" width="321.57" height="258.17"/><path class="cls-2" d="M160.82,31.29C87.4,45.73,27.88,101.22,27.88,155.23s59.52,86.09,132.94,71.65S293.76,157,293.76,102.95,234.24,16.85,160.82,31.29ZM158.2,220.08C87.87,233.92,31.63,204.31,31.63,153.14S88.41,50,158.15,35.72C229.93,21,287.67,52.55,285.36,104.48,283.24,152.27,223.61,207.21,158.2,220.08Z"/><path class="cls-2" d="M168.62,165.14s5.25.14,9.08-2.16c6.17-3.7,14.28-10.42,25.78-26.58L80.31,166.67Z"/><path class="cls-2" d="M104.2,92.87C110.11,95,129.31,101.74,140,109l1,.72,79.8-1.25c.14-.19,3.08-5.36,4.81-8.69,1.91-3.66,2-6.79-.13-8.87-2.35-2.26-6.15-2.62-13.83-2.62H104.63c-.85,0-3-.15-3.38,1.61a1.9,1.9,0,0,0,.47,1.63A6.44,6.44,0,0,0,104.2,92.87Z"/><path class="cls-2" d="M264.67,112.9c-1.77,0-118.61,1.84-120.42,1.91-1,0-1.26.26-1.26,1.31,0,8.48-11.27,16.62-26.54,23.91-16.11,7.68-36.33,15.33-46.85,19.2-2.5.92-7,2.51-8.44,3.24-1.15.59-2,1.5-1.59,2.55s1.54,1.59,5.53.53c1.79-.47,3.8-1,6-1.54,20.18-5.25,57.15-14.51,93.15-23.5,37.28-9.31,74-17.36,101-22.22,2.12-.38,3.86-1.52,3.77-3.13S267.17,112.83,264.67,112.9Z"/></svg>